# xmcd
#
# Track frame offsets: 
#        150
#        55270
#        88638
#        108332
#        134051
#        166276
#        192123
#        216604
#        234082
#
# Disc length: 3729 seconds
#
# Revision: 2
# Processed by: cddbd v1.5.2PL0 Copyright (c) Steve Scherf et al.
# Submitted via: ExactAudioCopy v1.0b4
#
DISCID=7c0e8f09
DTITLE=Gorillaz - D-Sides
DYEAR=2007
DGENRE=Electronic
TTITLE0=Dare (DFA Remix)
TTITLE1=Feel Good Inc (Stanton Warriors Remix)
TTITLE2=Kids with Guns (Jamie T's Turns to Monsters Remix)
TTITLE3=Dare (Soulwax Remix)
TTITLE4=Kids with Guns (Hot Chip Remix)
TTITLE5=El Mañana (Metronomy Remix)
TTITLE6=Dare (Junior Sanchez Remix)
TTITLE7=Dirty Harry (Schtung Chinese New Year Remix)
TTITLE8=Kids with Guns (Quiet Village Remix)
EXTD=
EXTT0=
EXTT1=
EXTT2=
EXTT3=
EXTT4=
EXTT5=
EXTT6=
EXTT7=
EXTT8=
PLAYORDER=
